<?xml version="1.0" encoding="UTF-8"?>
<svg width="18" height="18" viewBox="0 0 18 18" fill="none" xmlns="http://www.w3.org/2000/svg">
  <path d="M12.7657 9.50419C12.7708 8.86125 12.9599 8.23456 13.3099 7.69677C13.6599 7.15897 14.1559 6.73251 14.7407 6.47169C14.3783 5.94119 13.8815 5.51436 13.3002 5.23213C12.7189 4.9499 12.0737 4.82201 11.4257 4.86169C10.0357 4.99169 8.7357 5.89669 8.0157 5.89669C7.2807 5.89669 6.1857 4.88169 5.0157 4.90669C4.25533 4.92477 3.51336 5.13724 2.86471 5.52332C2.21606 5.9094 1.68465 6.45456 1.3257 7.10669C-0.3243 10.0767 0.9357 14.4417 2.5257 16.9267C3.3207 18.1417 4.2657 19.4967 5.5157 19.4517C6.7357 19.4017 7.1857 18.6767 8.6557 18.6767C10.1107 18.6767 10.5307 19.4517 11.8057 19.4217C13.1257 19.4017 13.9557 18.1867 14.7207 16.9567C15.3001 16.0686 15.7358 15.0855 16.0107 14.0517C15.2926 13.7675 14.6765 13.2593 14.2501 12.5996C13.8237 11.9399 13.6078 11.1623 13.6357 10.3742L12.7657 9.50419Z" fill="black"/>
  <path d="M11.3257 2.86169C11.9957 2.06169 12.1957 0.991688 12.0757 -0.00830078C11.0757 0.0316992 10.1357 0.511699 9.4657 1.28169C9.14339 1.65347 8.90145 2.08723 8.75624 2.55642C8.61103 3.02561 8.56585 3.51986 8.6257 4.00669C9.13057 4.02169 9.6307 3.91169 10.0957 3.68669C10.5607 3.46169 10.9807 3.12669 11.3257 2.70669V2.86169Z" fill="black"/>
</svg>
