<svg width="292" height="238" viewBox="0 0 292 238" fill="none" xmlns="http://www.w3.org/2000/svg">
<path d="M292 42C292 18.8041 273.196 0 250 0H42C18.804 0 1.90735e-06 18.804 1.90735e-06 42V164.646C1.90735e-06 187.842 18.8046 206.646 42.0006 206.646C44.1132 206.646 46.2102 206.646 48.2923 206.646C54.9872 206.646 55.9135 237.531 62.3308 237.531C69.0057 237.531 81.1615 206.646 87.6 206.646C142.413 206.646 189.839 206.646 249.991 206.646C273.187 206.646 292 187.842 292 164.646V42Z" fill="white"/>
<path d="M240.625 69.4003C234.668 68.3947 227.92 67.1881 223.212 63.2865C217.422 58.5404 216.881 49.5307 217.131 42.7332C217.298 38.4295 210.549 38.0675 210.216 42.331C210.133 43.2561 210.091 44.1812 210.008 45.1465C209.716 45.589 209.466 57.2533 203.676 62.4419C199.261 66.3836 192.513 66.8663 186.848 67.349C182.849 67.711 183.64 73.6236 187.347 73.9453C193.846 74.4682 202.01 74.9509 206.217 80.5015C208.217 83.1159 208.508 86.4945 208.717 89.6318C209.008 93.4529 209.216 97.274 209.466 101.135C209.716 105.318 216.465 105.881 216.381 101.538C216.298 97.8371 216.423 94.1367 216.798 90.4765C217.089 87.5001 217.006 83.2365 219.797 81.3059C222.296 79.5764 225.837 78.6915 228.753 77.9273C232.46 76.962 236.292 76.3184 240.124 76.0771C244.665 75.7553 245.04 70.1243 240.625 69.4003Z" fill="#7440FF"/>
<path d="M181 142C185.418 142 189.089 145.623 188.157 149.942C184.514 166.838 169.486 179.5 151.5 179.5C133.514 179.5 118.486 166.838 114.843 149.942C113.911 145.623 117.582 142 122 142H181Z" fill="#BEFF07"/>
<path d="M47.1719 76.5357C47.1719 94.0016 61.8482 108.168 79.9362 108.168C98.0098 108.168 112.672 94.0016 112.672 76.5357C112.672 59.0697 98.0098 44.9224 79.9362 44.9224C61.8482 44.9224 47.1719 59.0697 47.1719 76.5357Z" fill="#7440FF"/>
</svg>
