<svg width="79" height="76" viewBox="0 0 79 76" fill="none" xmlns="http://www.w3.org/2000/svg">
<circle cx="40" cy="36" r="35.5" stroke="url(#paint0_linear_211_1261)"/>
<circle cx="40" cy="34.9976" r="29" fill="#BEFF07"/>
<path fill-rule="evenodd" clip-rule="evenodd" d="M42.9 23.3976C42.9 21.7959 41.6016 20.4976 40 20.4976C38.3984 20.4976 37.1 21.7959 37.1 23.3976L37.1 32.0976H28.4C26.7984 32.0976 25.5 33.3959 25.5 34.9975C25.5 36.5992 26.7984 37.8975 28.4 37.8975H37.1L37.1 46.5976C37.1 48.1992 38.3984 49.4976 40 49.4976C41.6016 49.4976 42.9 48.1992 42.9 46.5976V37.8975H51.6C53.2016 37.8975 54.5 36.5992 54.5 34.9975C54.5 33.3959 53.2016 32.0976 51.6 32.0976H42.9V23.3976Z" fill="black"/>
<rect y="60.5908" width="79" height="12.9545" rx="6.47727" fill="#7440FF"/>
<path d="M6.79249 66.859C6.79249 66.247 6.93349 65.698 7.21549 65.212C7.50349 64.726 7.89049 64.348 8.37649 64.078C8.86849 63.802 9.40549 63.664 9.98749 63.664C10.6535 63.664 11.2445 63.829 11.7605 64.159C12.2825 64.483 12.6605 64.945 12.8945 65.545H11.6615C11.4995 65.215 11.2745 64.969 10.9865 64.807C10.6985 64.645 10.3655 64.564 9.98749 64.564C9.57349 64.564 9.20449 64.657 8.88049 64.843C8.55649 65.029 8.30149 65.296 8.11549 65.644C7.93549 65.992 7.84549 66.397 7.84549 66.859C7.84549 67.321 7.93549 67.726 8.11549 68.074C8.30149 68.422 8.55649 68.692 8.88049 68.884C9.20449 69.07 9.57349 69.163 9.98749 69.163C10.3655 69.163 10.6985 69.082 10.9865 68.92C11.2745 68.758 11.4995 68.512 11.6615 68.182H12.8945C12.6605 68.782 12.2825 69.244 11.7605 69.568C11.2445 69.892 10.6535 70.054 9.98749 70.054C9.39949 70.054 8.86249 69.919 8.37649 69.649C7.89049 69.373 7.50349 68.992 7.21549 68.506C6.93349 68.02 6.79249 67.471 6.79249 66.859ZM14.6214 65.761C14.7714 65.509 14.9694 65.314 15.2154 65.176C15.4674 65.032 15.7644 64.96 16.1064 64.96V66.022H15.8454C15.4434 66.022 15.1374 66.124 14.9274 66.328C14.7234 66.532 14.6214 66.886 14.6214 67.39V70H13.5954V65.041H14.6214V65.761ZM21.0945 67.399C21.0945 67.585 21.0825 67.753 21.0585 67.903H17.2695C17.2995 68.299 17.4465 68.617 17.7105 68.857C17.9745 69.097 18.2985 69.217 18.6825 69.217C19.2345 69.217 19.6245 68.986 19.8525 68.524H20.9595C20.8095 68.98 20.5365 69.355 20.1405 69.649C19.7505 69.937 19.2645 70.081 18.6825 70.081C18.2085 70.081 17.7825 69.976 17.4045 69.766C17.0325 69.55 16.7385 69.25 16.5225 68.866C16.3125 68.476 16.2075 68.026 16.2075 67.516C16.2075 67.006 16.3095 66.559 16.5135 66.175C16.7235 65.785 17.0145 65.485 17.3865 65.275C17.7645 65.065 18.1965 64.96 18.6825 64.96C19.1505 64.96 19.5675 65.062 19.9335 65.266C20.2995 65.47 20.5845 65.758 20.7885 66.13C20.9925 66.496 21.0945 66.919 21.0945 67.399ZM20.0235 67.075C20.0175 66.697 19.8825 66.394 19.6185 66.166C19.3545 65.938 19.0275 65.824 18.6375 65.824C18.2835 65.824 17.9805 65.938 17.7285 66.166C17.4765 66.388 17.3265 66.691 17.2785 67.075H20.0235ZM21.2622 67.498C21.2622 67 21.3642 66.559 21.5682 66.175C21.7782 65.791 22.0602 65.494 22.4142 65.284C22.7742 65.068 23.1702 64.96 23.6022 64.96C23.9922 64.96 24.3312 65.038 24.6192 65.194C24.9132 65.344 25.1472 65.533 25.3212 65.761V65.041H26.3562V70H25.3212V69.262C25.1472 69.496 24.9102 69.691 24.6102 69.847C24.3102 70.003 23.9682 70.081 23.5842 70.081C23.1582 70.081 22.7682 69.973 22.4142 69.757C22.0602 69.535 21.7782 69.229 21.5682 68.839C21.3642 68.443 21.2622 67.996 21.2622 67.498ZM25.3212 67.516C25.3212 67.174 25.2492 66.877 25.1052 66.625C24.9672 66.373 24.7842 66.181 24.5562 66.049C24.3282 65.917 24.0822 65.851 23.8182 65.851C23.5542 65.851 23.3082 65.917 23.0802 66.049C22.8522 66.175 22.6662 66.364 22.5222 66.616C22.3842 66.862 22.3152 67.156 22.3152 67.498C22.3152 67.84 22.3842 68.14 22.5222 68.398C22.6662 68.656 22.8522 68.854 23.0802 68.992C23.3142 69.124 23.5602 69.19 23.8182 69.19C24.0822 69.19 24.3282 69.124 24.5562 68.992C24.7842 68.86 24.9672 68.668 25.1052 68.416C25.2492 68.158 25.3212 67.858 25.3212 67.516ZM28.4008 65.878V68.623C28.4008 68.809 28.4428 68.944 28.5268 69.028C28.6168 69.106 28.7668 69.145 28.9768 69.145H29.6068V70H28.7968C28.3348 70 27.9808 69.892 27.7348 69.676C27.4888 69.46 27.3658 69.109 27.3658 68.623V65.878H26.7808V65.041H27.3658V63.808H28.4008V65.041H29.6068V65.878H28.4008ZM34.5975 67.399C34.5975 67.585 34.5855 67.753 34.5615 67.903H30.7725C30.8025 68.299 30.9495 68.617 31.2135 68.857C31.4775 69.097 31.8015 69.217 32.1855 69.217C32.7375 69.217 33.1275 68.986 33.3555 68.524H34.4625C34.3125 68.98 34.0395 69.355 33.6435 69.649C33.2535 69.937 32.7675 70.081 32.1855 70.081C31.7115 70.081 31.2855 69.976 30.9075 69.766C30.5355 69.55 30.2415 69.25 30.0255 68.866C29.8155 68.476 29.7105 68.026 29.7105 67.516C29.7105 67.006 29.8125 66.559 30.0165 66.175C30.2265 65.785 30.5175 65.485 30.8895 65.275C31.2675 65.065 31.6995 64.96 32.1855 64.96C32.6535 64.96 33.0705 65.062 33.4365 65.266C33.8025 65.47 34.0875 65.758 34.2915 66.13C34.4955 66.496 34.5975 66.919 34.5975 67.399ZM33.5265 67.075C33.5205 66.697 33.3855 66.394 33.1215 66.166C32.8575 65.938 32.5305 65.824 32.1405 65.824C31.7865 65.824 31.4835 65.938 31.2315 66.166C30.9795 66.388 30.8295 66.691 30.7815 67.075H33.5265ZM36.603 67.498C36.603 67 36.705 66.559 36.909 66.175C37.119 65.791 37.401 65.494 37.755 65.284C38.115 65.068 38.511 64.96 38.943 64.96C39.333 64.96 39.672 65.038 39.96 65.194C40.254 65.344 40.488 65.533 40.662 65.761V65.041H41.697V70H40.662V69.262C40.488 69.496 40.251 69.691 39.951 69.847C39.651 70.003 39.309 70.081 38.925 70.081C38.499 70.081 38.109 69.973 37.755 69.757C37.401 69.535 37.119 69.229 36.909 68.839C36.705 68.443 36.603 67.996 36.603 67.498ZM40.662 67.516C40.662 67.174 40.59 66.877 40.446 66.625C40.308 66.373 40.125 66.181 39.897 66.049C39.669 65.917 39.423 65.851 39.159 65.851C38.895 65.851 38.649 65.917 38.421 66.049C38.193 66.175 38.007 66.364 37.863 66.616C37.725 66.862 37.656 67.156 37.656 67.498C37.656 67.84 37.725 68.14 37.863 68.398C38.007 68.656 38.193 68.854 38.421 68.992C38.655 69.124 38.901 69.19 39.159 69.19C39.423 69.19 39.669 69.124 39.897 68.992C40.125 68.86 40.308 68.668 40.446 68.416C40.59 68.158 40.662 67.858 40.662 67.516ZM45.0466 64.96C45.4366 64.96 45.7846 65.041 46.0906 65.203C46.4026 65.365 46.6456 65.605 46.8196 65.923C46.9936 66.241 47.0806 66.625 47.0806 67.075V70H46.0636V67.228C46.0636 66.784 45.9526 66.445 45.7306 66.211C45.5086 65.971 45.2056 65.851 44.8216 65.851C44.4376 65.851 44.1316 65.971 43.9036 66.211C43.6816 66.445 43.5706 66.784 43.5706 67.228V70H42.5446V65.041H43.5706V65.608C43.7386 65.404 43.9516 65.245 44.2096 65.131C44.4736 65.017 44.7526 64.96 45.0466 64.96ZM54.2723 67.399C54.2723 67.585 54.2603 67.753 54.2363 67.903H50.4473C50.4773 68.299 50.6243 68.617 50.8883 68.857C51.1523 69.097 51.4763 69.217 51.8603 69.217C52.4123 69.217 52.8023 68.986 53.0303 68.524H54.1373C53.9873 68.98 53.7143 69.355 53.3183 69.649C52.9283 69.937 52.4423 70.081 51.8603 70.081C51.3863 70.081 50.9603 69.976 50.5823 69.766C50.2103 69.55 49.9163 69.25 49.7003 68.866C49.4903 68.476 49.3853 68.026 49.3853 67.516C49.3853 67.006 49.4873 66.559 49.6913 66.175C49.9013 65.785 50.1923 65.485 50.5643 65.275C50.9423 65.065 51.3743 64.96 51.8603 64.96C52.3283 64.96 52.7453 65.062 53.1113 65.266C53.4773 65.47 53.7623 65.758 53.9663 66.13C54.1703 66.496 54.2723 66.919 54.2723 67.399ZM53.2013 67.075C53.1953 66.697 53.0603 66.394 52.7963 66.166C52.5323 65.938 52.2053 65.824 51.8153 65.824C51.4613 65.824 51.1583 65.938 50.9063 66.166C50.6543 66.388 50.5043 66.691 50.4563 67.075H53.2013ZM56.6989 69.082L58.1029 65.041H59.1919L57.3019 70H56.0779L54.1969 65.041H55.2949L56.6989 69.082ZM64.0125 67.399C64.0125 67.585 64.0005 67.753 63.9765 67.903H60.1875C60.2175 68.299 60.3645 68.617 60.6285 68.857C60.8925 69.097 61.2165 69.217 61.6005 69.217C62.1525 69.217 62.5425 68.986 62.7705 68.524H63.8775C63.7275 68.98 63.4545 69.355 63.0585 69.649C62.6685 69.937 62.1825 70.081 61.6005 70.081C61.1265 70.081 60.7005 69.976 60.3225 69.766C59.9505 69.55 59.6565 69.25 59.4405 68.866C59.2305 68.476 59.1255 68.026 59.1255 67.516C59.1255 67.006 59.2275 66.559 59.4315 66.175C59.6415 65.785 59.9325 65.485 60.3045 65.275C60.6825 65.065 61.1145 64.96 61.6005 64.96C62.0685 64.96 62.4855 65.062 62.8515 65.266C63.2175 65.47 63.5025 65.758 63.7065 66.13C63.9105 66.496 64.0125 66.919 64.0125 67.399ZM62.9415 67.075C62.9355 66.697 62.8005 66.394 62.5365 66.166C62.2725 65.938 61.9455 65.824 61.5555 65.824C61.2015 65.824 60.8985 65.938 60.6465 66.166C60.3945 66.388 60.2445 66.691 60.1965 67.075H62.9415ZM67.0242 64.96C67.4142 64.96 67.7622 65.041 68.0682 65.203C68.3802 65.365 68.6232 65.605 68.7972 65.923C68.9712 66.241 69.0582 66.625 69.0582 67.075V70H68.0412V67.228C68.0412 66.784 67.9302 66.445 67.7082 66.211C67.4862 65.971 67.1832 65.851 66.7992 65.851C66.4152 65.851 66.1092 65.971 65.8812 66.211C65.6592 66.445 65.5482 66.784 65.5482 67.228V70H64.5222V65.041H65.5482V65.608C65.7162 65.404 65.9292 65.245 66.1872 65.131C66.4512 65.017 66.7302 64.96 67.0242 64.96ZM71.0639 65.878V68.623C71.0639 68.809 71.1059 68.944 71.1899 69.028C71.2799 69.106 71.4299 69.145 71.6399 69.145H72.2699V70H71.4599C70.9979 70 70.6439 69.892 70.3979 69.676C70.1519 69.46 70.0289 69.109 70.0289 68.623V65.878H69.4439V65.041H70.0289V63.808H71.0639V65.041H72.2699V65.878H71.0639Z" fill="white"/>
<defs>
<linearGradient id="paint0_linear_211_1261" x1="5.82782" y1="-1.39785e-06" x2="75.2187" y2="71.5374" gradientUnits="userSpaceOnUse">
<stop stop-color="#BEFF07"/>
<stop offset="1" stop-color="#7440FF"/>
</linearGradient>
</defs>
</svg>
