<?xml version="1.0" encoding="UTF-8"?>
<svg width="200px" height="200px" viewBox="0 0 200 200" version="1.1" xmlns="http://www.w3.org/2000/svg" xmlns:xlink="http://www.w3.org/1999/xlink">
    <title>Empty State</title>
    <g id="Empty-State" stroke="none" stroke-width="1" fill="none" fill-rule="evenodd">
        <g id="Trophy" transform="translate(40, 30)" fill-rule="nonzero">
            <path d="M120,40 L100,40 L100,20 C100,8.954 91.046,0 80,0 L40,0 C28.954,0 20,8.954 20,20 L20,40 L0,40 L0,60 C0,82.091 17.909,100 40,100 L45.176,100 C49.348,110.631 59.369,118.581 71.716,119.795 L71.716,140 L48.284,140 L48.284,160 L111.716,160 L111.716,140 L88.284,140 L88.284,119.795 C100.631,118.581 110.652,110.631 114.824,100 L120,100 C142.091,100 160,82.091 160,60 L160,40 L120,40 Z" id="Shape" fill="#F5F5F5"></path>
            <path d="M40,80 C28.954,80 20,71.046 20,60 L20,40 L0,40 L0,60 C0,82.091 17.909,100 40,100 L45.176,100 C49.348,110.631 59.369,118.581 71.716,119.795 L71.716,140 L48.284,140 L48.284,160 L80,160 L80,0 L40,0 C28.954,0 20,8.954 20,20 L20,40 L40,40 L40,80 Z" id="Shape" fill="#E6E6E6"></path>
            <path d="M120,60 C120,71.046 111.046,80 100,80 L100,40 L120,40 L120,60 Z" id="Path" fill="#FFCC00"></path>
            <path d="M60,80 C48.954,80 40,71.046 40,60 L40,40 L60,40 L60,80 Z" id="Path" fill="#FFCC00"></path>
        </g>
        <text id="No-data-available" font-family="Arial-BoldMT, Arial" font-size="16" font-weight="bold" fill="#888888">
            <tspan x="50" y="170">No data available</tspan>
        </text>
    </g>
</svg>
