<svg width="191" height="158" viewBox="0 0 191 158" fill="none" xmlns="http://www.w3.org/2000/svg">
<path fill-rule="evenodd" clip-rule="evenodd" d="M30 0C13.4315 0 0 13.4315 0 30V109.778C0 126.346 13.4315 139.778 30 139.778H85.05C86.4041 139.778 87.5582 140.741 88.6231 141.578V141.578L108.226 156.97C111.296 159.382 115.648 156.416 114.528 152.676V152.676C112.601 146.247 117.416 139.778 124.128 139.778H160.861C177.429 139.778 190.861 126.346 190.861 109.778V30C190.861 13.4315 177.429 0 160.861 0H30Z" fill="#7440FF"/>
<path fill-rule="evenodd" clip-rule="evenodd" d="M56.5679 86.2319C55.2334 86.0405 53.8149 85.9331 52.3064 85.9331C41.1959 85.9331 34.9908 91.7955 32.6121 94.7165C32.2263 95.2183 32.0203 95.8332 32.0203 96.4685C32.0203 96.4859 32.0203 96.5033 32.0174 96.5178C32 97.5911 32 99.0124 32 100.437C32 102.038 33.2996 103.337 34.9009 103.337H55.7063C55.3785 102.415 55.2073 101.434 55.2073 100.437C55.2073 97.1356 55.2073 93.2023 55.2189 90.8788C55.2189 89.2254 55.6918 87.6155 56.5679 86.2319ZM121.928 103.337H63.9101C63.1414 103.337 62.4016 103.033 61.8591 102.487C61.3138 101.945 61.0092 101.205 61.0092 100.437C61.0092 97.1443 61.0092 93.2284 61.0208 90.8962C61.0208 90.8904 61.0208 90.8846 61.0208 90.8788C61.0208 90.2117 61.2529 89.5677 61.6735 89.0514C65.2735 84.9411 76.152 74.3304 92.9193 74.3304C111.897 74.3304 121.427 84.9208 124.342 88.9151C124.664 89.4053 124.829 89.9593 124.829 90.525V100.437C124.829 101.205 124.525 101.945 123.979 102.487C123.437 103.033 122.697 103.337 121.928 103.337ZM130.132 103.337H150.938C152.539 103.337 153.839 102.038 153.839 100.437V96.4656C153.839 95.8245 153.627 95.2038 153.238 94.6962C150.848 91.7955 144.64 85.9331 133.532 85.9331C132.102 85.9331 130.753 86.0289 129.482 86.2029C130.234 87.5169 130.631 89.0079 130.631 90.5308V100.437C130.631 101.434 130.46 102.415 130.132 103.337ZM52.3064 51.1248C44.2999 51.1248 37.8018 57.6223 37.8018 65.6283C37.8018 73.6342 44.2999 80.1318 52.3064 80.1318C60.313 80.1318 66.811 73.6342 66.811 65.6283C66.811 57.6223 60.313 51.1248 52.3064 51.1248ZM133.532 51.1248C125.526 51.1248 119.028 57.6223 119.028 65.6283C119.028 73.6342 125.526 80.1318 133.532 80.1318C141.539 80.1318 148.037 73.6342 148.037 65.6283C148.037 57.6223 141.539 51.1248 133.532 51.1248ZM92.9193 27.9192C81.713 27.9192 72.6129 37.0187 72.6129 48.2241C72.6129 59.4295 81.713 68.529 92.9193 68.529C104.126 68.529 113.226 59.4295 113.226 48.2241C113.226 37.0187 104.126 27.9192 92.9193 27.9192Z" fill="white"/>
</svg>
