<svg width="196" height="123" viewBox="0 0 196 123" fill="none" xmlns="http://www.w3.org/2000/svg">
<path d="M0 17V105.989C0 115.378 7.61117 122.989 17 122.989H41.7629C46.4157 122.989 50.8651 121.082 54.0738 117.713L83.6693 86.6345C86.878 83.2651 91.3274 81.358 95.9802 81.358H103.535C108.188 81.358 112.637 83.2651 115.846 86.6345L145.442 117.713C148.65 121.082 153.1 122.989 157.753 122.989H178.09C187.479 122.989 195.09 115.378 195.09 105.989V17C195.09 7.61116 187.479 0 178.09 0H17C7.61116 0 0 7.61117 0 17Z" fill="#7440FF"/>
<path fill-rule="evenodd" clip-rule="evenodd" d="M135.725 59.3886C142.752 59.3886 148.449 53.6924 148.449 46.6656C148.449 39.6389 142.752 33.9426 135.725 33.9426C128.698 33.9426 123.002 39.6389 123.002 46.6656C123.002 53.6924 128.698 59.3886 135.725 59.3886ZM161.169 84.8284C168.196 84.8284 173.893 79.1321 173.893 72.1054C173.893 65.0787 168.196 59.3824 161.169 59.3824C154.143 59.3824 148.446 65.0787 148.446 72.1054C148.446 79.1321 154.143 84.8284 161.169 84.8284Z" fill="#CCFF6F"/>
<path fill-rule="evenodd" clip-rule="evenodd" d="M46.171 33.9661C41.7528 33.9661 38.171 37.5478 38.171 41.9661V41.9661C38.171 46.9074 34.1583 50.9132 29.2169 50.9132V50.9132C24.7986 50.9132 21.2169 54.4949 21.2169 58.9132V59.8772C21.2169 64.2955 24.7986 67.8772 29.2169 67.8772V67.8772C34.1621 67.8772 38.171 71.9129 38.171 76.8581V76.8581C38.171 81.2764 41.7528 84.8581 46.171 84.8581H47.1354C51.5537 84.8581 55.1354 81.2764 55.1354 76.8581V76.8581C55.1354 71.9016 59.1534 67.8772 64.1099 67.8772V67.8772C68.5282 67.8772 72.1099 64.2955 72.1099 59.8772V58.9132C72.1099 54.4949 68.5282 50.9132 64.11 50.9132V50.9132C59.1686 50.9132 55.1354 46.9074 55.1354 41.9661V41.9661C55.1354 37.5478 51.5537 33.9661 47.1354 33.9661H46.171Z" fill="#CCFF6F"/>
</svg>
