<svg width="189" height="190" viewBox="0 0 189 190" fill="none" xmlns="http://www.w3.org/2000/svg">
<path d="M162.188 15.8125C162.188 13.0511 159.949 10.8125 157.188 10.8125H15.8125C13.0511 10.8125 10.8125 13.0511 10.8125 15.8125V27.4375C10.8125 30.1989 13.0511 32.4375 15.8125 32.4375H157.188C159.949 32.4375 162.188 30.1989 162.188 27.4375V15.8125Z" fill="#7440FF"/>
<path d="M118.938 54.0625H15.8125C13.0511 54.0625 10.8125 56.3011 10.8125 59.0625V70.6875C10.8125 73.4489 13.0511 75.6875 15.8125 75.6875H68.3466C69.7689 75.6875 71.1163 75.0745 72.1006 74.0479C83.9085 61.7309 100.527 54.0625 118.938 54.0625Z" fill="#7440FF"/>
<path d="M54.2181 140.563C56.3372 140.563 58.2086 141.906 59.0233 143.862C60.3874 147.138 62.0124 150.277 63.8721 153.255C66.1617 156.921 63.7187 162.188 59.3964 162.188H15.8125C13.0511 162.188 10.8125 159.949 10.8125 157.188V145.563C10.8125 142.801 13.0511 140.563 15.8125 140.563H54.2181Z" fill="#7440FF"/>
<path d="M50.6836 97.3125C54.1344 97.3125 56.5548 100.735 55.7683 104.095C55.0198 107.293 54.5079 110.582 54.252 113.942C54.0423 116.696 51.8239 118.938 49.0625 118.938H15.8125C13.0511 118.938 10.8125 116.699 10.8125 113.938V102.313C10.8125 99.5511 13.0511 97.3125 15.8125 97.3125H50.6836Z" fill="#7440FF"/>
<path d="M162.188 118.938C162.188 125.576 160.692 131.865 158.019 137.486C157.039 139.547 157.327 142.036 158.941 143.65L169.001 153.71C170.953 155.662 170.953 158.828 169.001 160.781L160.781 169.001C158.828 170.953 155.662 170.953 153.71 169.001L143.65 158.941C142.036 157.327 139.547 157.039 137.486 158.019C131.865 160.692 125.576 162.188 118.938 162.188C95.0512 162.188 75.6875 142.824 75.6875 118.938C75.6875 95.0512 95.0512 75.6875 118.938 75.6875C142.824 75.6875 162.188 95.0512 162.188 118.938Z" fill="#7440FF"/>
<ellipse cx="118.742" cy="117.741" rx="41.8719" ry="41.8696" transform="rotate(-37.758 118.742 117.741)" fill="#7440FF"/>
<ellipse cx="118.89" cy="117.998" rx="35.0806" ry="33.5386" transform="rotate(-37.758 118.89 117.998)" fill="#CCFF6F"/>
<ellipse cx="128.072" cy="107.16" rx="7.85098" ry="7.85054" transform="rotate(-37.758 128.072 107.16)" fill="white"/>
</svg>
