<svg width="372" height="372" viewBox="0 0 372 372" fill="none" xmlns="http://www.w3.org/2000/svg">
<g clip-path="url(#clip0_439_1294)">
<path d="M265.347 371.933H62.746C49.3853 371.933 38.5547 361.102 38.5547 347.742V169.335C38.5547 155.975 49.3853 145.145 62.746 145.145H241.156C254.517 145.145 265.347 155.975 265.347 169.335V371.933Z" fill="#7440FF"/>
<g opacity="0.2">
<path opacity="0.4" d="M241.156 145.145H210.917C224.278 145.145 235.108 155.975 235.108 169.335V204.71C235.108 211.626 231.18 217.949 224.966 220.987C194.293 235.986 173.118 267.515 173.118 303.896C173.118 330.805 184.704 355.058 203.148 371.933H265.347V169.335C265.347 155.975 254.517 145.145 241.156 145.145Z" fill="#7440FF"/>
</g>
<path d="M72.6926 79.2572V145.144H104.443V79.2572C104.443 53.02 125.713 31.7508 151.951 31.7508C178.188 31.7508 199.458 53.02 199.458 79.2572V145.144H231.209V79.2572C231.21 35.4847 195.725 0 151.951 0C108.178 0 72.6926 35.4847 72.6926 79.2572V79.2572Z" fill="#BEFF07"/>
<g opacity="0.3">
<path d="M72.6926 120.954H104.443V145.144H72.6926V120.954Z" fill="#A5A5A5"/>
</g>
<g opacity="0.3">
<path d="M199.459 120.954H231.209V145.144H199.459V120.954Z" fill="#A5A5A5"/>
</g>
<path d="M176.143 232.467C176.143 219.106 165.312 208.276 151.951 208.276C138.591 208.276 127.76 219.106 127.76 232.467C127.76 241.419 132.627 249.23 139.855 253.413V296.706C139.855 303.386 145.271 308.801 151.951 308.801C158.631 308.801 164.046 303.386 164.046 296.706V253.413C171.276 249.23 176.143 241.419 176.143 232.467V232.467Z" fill="#BEFF07"/>
</g>
<defs>
<clipPath id="clip0_439_1294">
<rect width="371.94" height="371.933" fill="white"/>
</clipPath>
</defs>
</svg>
