<svg width="504" height="504" viewBox="0 0 504 504" fill="none" xmlns="http://www.w3.org/2000/svg">
<path d="M15.75 231C15.75 112.121 112.121 15.75 231 15.75C346.435 15.75 440.646 106.617 446.01 220.725C420.431 203.983 389.852 194.25 357 194.25C267.116 194.25 194.25 267.116 194.25 357C194.25 389.852 203.984 420.43 220.725 446.008C183.957 444.28 149.59 433.323 119.905 415.401C98.0464 424.198 72.9552 433.34 49.9984 439.714C32.6004 444.545 16.9218 429.59 21.3283 411.942C27.2769 388.119 36.4317 362.369 45.5275 340.302C26.6061 308.261 15.75 270.891 15.75 231Z" fill="#7440FF"/>
<path d="M357 225.75C429.488 225.75 488.25 284.512 488.25 357C488.25 381.157 481.719 403.805 470.323 423.255C474.534 432.401 478.671 442.761 482.006 453.828C487.325 471.483 471.261 486.729 453.918 481.059C443.405 477.621 433.438 473.572 424.498 469.585C404.773 481.437 381.675 488.25 357 488.25C284.512 488.25 225.75 429.488 225.75 357C225.75 284.512 284.512 225.75 357 225.75Z" fill="#7440FF"/>
</svg>
