<svg width="22" height="23" viewBox="0 0 22 23" fill="none" xmlns="http://www.w3.org/2000/svg">
<path fill-rule="evenodd" clip-rule="evenodd" d="M20.0841 3.98485C20.68 5.15424 20.68 6.68505 20.68 9.74667V12.6974C20.68 13.0031 20.68 13.156 20.6739 13.2852C20.5405 16.1011 18.2878 18.3539 15.4718 18.4872C15.3426 18.4933 15.1721 18.4933 14.831 18.4933L14.7435 18.4934C13.6281 18.5006 12.5415 18.8488 11.6296 19.4913L11.5717 19.5326L8.71726 21.5715C7.73874 22.2704 6.45291 21.261 6.89951 20.1445C7.21586 19.3537 6.6334 18.4933 5.78159 18.4933H5.12367C2.84623 18.4933 1 16.6471 1 14.3697V9.74667C1 6.68505 1 5.15424 1.59583 3.98485C2.11994 2.95623 2.95623 2.11994 3.98485 1.59583C5.15423 1 6.68504 1 9.74665 1H11.9333C14.9949 1 16.5257 1 17.6951 1.59583C18.7237 2.11994 19.56 2.95623 20.0841 3.98485ZM7.55999 9.74667C7.55999 10.3505 7.07049 10.84 6.46666 10.84C5.86283 10.84 5.37333 10.3505 5.37333 9.74667C5.37333 9.14284 5.86283 8.65333 6.46666 8.65333C7.07049 8.65333 7.55999 9.14284 7.55999 9.74667ZM11.9333 9.74667C11.9333 10.3505 11.4438 10.84 10.84 10.84C10.2362 10.84 9.74665 10.3505 9.74665 9.74667C9.74665 9.14284 10.2362 8.65333 10.84 8.65333C11.4438 8.65333 11.9333 9.14284 11.9333 9.74667ZM15.2133 10.84C15.8171 10.84 16.3066 10.3505 16.3066 9.74667C16.3066 9.14284 15.8171 8.65333 15.2133 8.65333C14.6095 8.65333 14.12 9.14284 14.12 9.74667C14.12 10.3505 14.6095 10.84 15.2133 10.84Z" fill="#7440FF" stroke="#7440FF"/>
</svg>
