<svg width="185" height="198" viewBox="0 0 185 198" fill="none" xmlns="http://www.w3.org/2000/svg">
<mask id="path-1-inside-1_2407_5212" fill="white">
<path fill-rule="evenodd" clip-rule="evenodd" d="M98.0263 52.6167C100.188 48.5223 101.055 43.6988 100.188 38.7783C98.1189 27.0459 86.9696 19.2052 75.2851 21.2655C63.6005 23.3258 55.8053 34.507 57.8741 46.2393C58.7293 51.0899 61.1367 55.2752 64.4923 58.3707C40.4257 70.0114 25.9745 96.5785 30.8463 124.208L35.7439 151.984C35.784 152.211 35.7122 152.443 35.5511 152.608L27.0505 161.317C21.2973 167.211 27.1306 176.904 35.0324 174.58L87.9408 159.02C95.0788 156.921 102.429 155.625 109.854 155.156L164.894 151.682C173.114 151.163 175.28 140.059 167.858 136.489L156.891 131.213C156.684 131.113 156.537 130.919 156.497 130.692L151.599 102.916C146.762 75.4813 124.38 55.5469 98.0263 52.6167ZM80.7527 52.2739C75.3815 53.221 70.2565 49.6168 69.3055 44.2237C68.3546 38.8305 71.9378 33.6908 77.309 32.7437C82.6801 31.7966 87.8052 35.4009 88.7562 40.794C89.7071 46.1871 86.1238 51.3269 80.7527 52.2739Z"/>
</mask>
<path fill-rule="evenodd" clip-rule="evenodd" d="M98.0263 52.6167C100.188 48.5223 101.055 43.6988 100.188 38.7783C98.1189 27.0459 86.9696 19.2052 75.2851 21.2655C63.6005 23.3258 55.8053 34.507 57.8741 46.2393C58.7293 51.0899 61.1367 55.2752 64.4923 58.3707C40.4257 70.0114 25.9745 96.5785 30.8463 124.208L35.7439 151.984C35.784 152.211 35.7122 152.443 35.5511 152.608L27.0505 161.317C21.2973 167.211 27.1306 176.904 35.0324 174.58L87.9408 159.02C95.0788 156.921 102.429 155.625 109.854 155.156L164.894 151.682C173.114 151.163 175.28 140.059 167.858 136.489L156.891 131.213C156.684 131.113 156.537 130.919 156.497 130.692L151.599 102.916C146.762 75.4813 124.38 55.5469 98.0263 52.6167ZM80.7527 52.2739C75.3815 53.221 70.2565 49.6168 69.3055 44.2237C68.3546 38.8305 71.9378 33.6908 77.309 32.7437C82.6801 31.7966 87.8052 35.4009 88.7562 40.794C89.7071 46.1871 86.1238 51.3269 80.7527 52.2739Z" fill="#101010"/>
<path d="M98.0263 52.6167L97.142 52.1498L96.4565 53.4483L97.9158 53.6105L98.0263 52.6167ZM64.4923 58.3707L64.9277 59.2709L66.2498 58.6315L65.1703 57.6357L64.4923 58.3707ZM35.5511 152.608L36.2667 153.307L36.2667 153.307L35.5511 152.608ZM27.0505 161.317L27.7661 162.015L27.7661 162.015L27.0505 161.317ZM35.0324 174.58L34.7502 173.62L34.7502 173.62L35.0324 174.58ZM87.9408 159.02L87.6587 158.061L87.6587 158.061L87.9408 159.02ZM109.854 155.156L109.791 154.158L109.791 154.158L109.854 155.156ZM164.894 151.682L164.831 150.684L164.831 150.684L164.894 151.682ZM167.858 136.489L168.291 135.587L168.291 135.587L167.858 136.489ZM156.891 131.213L156.458 132.114L156.458 132.114L156.891 131.213ZM99.2028 38.952C100.031 43.6464 99.2034 48.2452 97.142 52.1498L98.9106 53.0835C101.172 48.7993 102.08 43.7511 101.172 38.6047L99.2028 38.952ZM75.4587 22.2503C86.5956 20.2865 97.2293 27.7597 99.2028 38.952L101.172 38.6047C99.0084 26.3322 87.3437 18.1238 75.1114 20.2807L75.4587 22.2503ZM58.8589 46.0657C56.8854 34.8734 64.3218 24.214 75.4587 22.2503L75.1114 20.2807C62.8792 22.4375 54.7253 34.1405 56.8892 46.413L58.8589 46.0657ZM65.1703 57.6357C61.9703 54.6837 59.6749 50.6935 58.8589 46.0657L56.8892 46.413C57.7838 51.4862 60.303 55.8667 63.8142 59.1057L65.1703 57.6357ZM31.8311 124.034C27.039 96.857 41.2532 70.722 64.9277 59.2709L64.0569 57.4705C39.5983 69.3008 24.91 96.3001 29.8615 124.381L31.8311 124.034ZM36.7287 151.81L31.8311 124.034L29.8615 124.381L34.7591 152.157L36.7287 151.81ZM36.2667 153.307C36.6527 152.911 36.8247 152.354 36.7287 151.81L34.7591 152.157C34.7432 152.067 34.7717 151.975 34.8355 151.91L36.2667 153.307ZM27.7661 162.015L36.2667 153.307L34.8355 151.91L26.3349 160.618L27.7661 162.015ZM34.7502 173.62C27.8362 175.654 22.732 167.172 27.7661 162.015L26.3349 160.618C19.8625 167.249 26.425 178.153 35.3145 175.539L34.7502 173.62ZM87.6587 158.061L34.7502 173.62L35.3145 175.539L88.223 159.98L87.6587 158.061ZM109.791 154.158C102.291 154.632 94.868 155.941 87.6587 158.061L88.223 159.98C95.2896 157.901 102.566 156.618 109.917 156.154L109.791 154.158ZM164.831 150.684L109.791 154.158L109.917 156.154L164.957 152.68L164.831 150.684ZM167.424 137.39C173.919 140.514 172.023 150.23 164.831 150.684L164.957 152.68C174.204 152.096 176.641 139.604 168.291 135.587L167.424 137.39ZM156.458 132.114L167.424 137.39L168.291 135.587L157.325 130.312L156.458 132.114ZM155.512 130.865C155.608 131.41 155.96 131.874 156.458 132.114L157.325 130.312C157.407 130.351 157.466 130.428 157.481 130.518L155.512 130.865ZM150.614 103.089L155.512 130.865L157.481 130.518L152.584 102.742L150.614 103.089ZM97.9158 53.6105C123.84 56.4931 145.856 76.1039 150.614 103.089L152.584 102.742C147.667 74.8587 124.919 54.6008 98.1368 51.6228L97.9158 53.6105ZM68.3207 44.3973C69.3669 50.3305 75.0075 54.3024 80.9263 53.2587L80.579 51.2891C75.7556 52.1396 71.146 48.903 70.2903 44.05L68.3207 44.3973ZM77.1353 31.7589C71.2165 32.8026 67.2745 38.4641 68.3207 44.3973L70.2903 44.05C69.4346 39.197 72.6592 34.579 77.4826 33.7285L77.1353 31.7589ZM89.741 40.6203C88.6948 34.6871 83.0542 30.7153 77.1353 31.7589L77.4826 33.7285C82.3061 32.878 86.9156 36.1146 87.7713 40.9676L89.741 40.6203ZM80.9263 53.2587C86.8452 52.2151 90.7871 46.5536 89.741 40.6203L87.7713 40.9676C88.6271 45.8207 85.4025 50.4386 80.579 51.2891L80.9263 53.2587Z" fill="#101010" mask="url(#path-1-inside-1_2407_5212)"/>
<rect x="72.8097" y="128.079" width="41.9663" height="60.118" rx="7.5" transform="rotate(-10 72.8097 128.079)" fill="#101010" stroke="#101010"/>
<rect x="78.6127" y="119.756" width="41.9663" height="60.118" rx="7.5" transform="rotate(-10 78.6127 119.756)" fill="#7440FF" stroke="#101010"/>
<mask id="path-5-inside-2_2407_5212" fill="white">
<path fill-rule="evenodd" clip-rule="evenodd" d="M103.83 44.2901C105.991 40.1958 106.859 35.3726 105.991 30.4524C103.922 18.72 92.773 10.8793 81.0884 12.9396C69.4038 14.9999 61.6087 26.1811 63.6774 37.9134C64.5326 42.7637 66.9398 46.9489 70.2951 50.0443C46.2289 61.6852 31.7779 88.2521 36.6496 115.881L41.5473 143.657C41.5873 143.884 41.5155 144.117 41.3545 144.282L32.8539 152.99C27.1006 158.884 32.9339 168.577 40.8357 166.253L93.7442 150.694C100.882 148.594 108.232 147.298 115.658 146.83L170.697 143.355C178.917 142.836 181.083 131.733 173.661 128.162L162.695 122.886C162.487 122.786 162.34 122.592 162.3 122.365L157.402 94.5892C152.565 67.1548 130.183 47.2205 103.83 44.2901ZM86.556 43.948C81.1849 44.8951 76.0598 41.2909 75.1089 35.8978C74.1579 30.5046 77.7412 25.3649 83.1123 24.4178C88.4835 23.4707 93.6085 27.075 94.5595 32.4681C95.5104 37.8612 91.9272 43.001 86.556 43.948Z"/>
</mask>
<path fill-rule="evenodd" clip-rule="evenodd" d="M103.83 44.2901C105.991 40.1958 106.859 35.3726 105.991 30.4524C103.922 18.72 92.773 10.8793 81.0884 12.9396C69.4038 14.9999 61.6087 26.1811 63.6774 37.9134C64.5326 42.7637 66.9398 46.9489 70.2951 50.0443C46.2289 61.6852 31.7779 88.2521 36.6496 115.881L41.5473 143.657C41.5873 143.884 41.5155 144.117 41.3545 144.282L32.8539 152.99C27.1006 158.884 32.9339 168.577 40.8357 166.253L93.7442 150.694C100.882 148.594 108.232 147.298 115.658 146.83L170.697 143.355C178.917 142.836 181.083 131.733 173.661 128.162L162.695 122.886C162.487 122.786 162.34 122.592 162.3 122.365L157.402 94.5892C152.565 67.1548 130.183 47.2205 103.83 44.2901ZM86.556 43.948C81.1849 44.8951 76.0598 41.2909 75.1089 35.8978C74.1579 30.5046 77.7412 25.3649 83.1123 24.4178C88.4835 23.4707 93.6085 27.075 94.5595 32.4681C95.5104 37.8612 91.9272 43.001 86.556 43.948Z" fill="#7440FF"/>
<path d="M103.83 44.2901L102.946 43.8232L102.26 45.1217L103.719 45.2839L103.83 44.2901ZM70.2951 50.0443L70.7305 50.9445L72.0525 50.3051L70.9732 49.3093L70.2951 50.0443ZM41.3545 144.282L40.6389 143.583L40.6389 143.583L41.3545 144.282ZM32.8539 152.99L33.5695 153.689L33.5695 153.689L32.8539 152.99ZM40.8357 166.253L40.5536 165.294L40.5536 165.294L40.8357 166.253ZM93.7442 150.694L93.462 149.734L93.462 149.734L93.7442 150.694ZM115.658 146.83L115.595 145.832L115.595 145.832L115.658 146.83ZM170.697 143.355L170.634 142.357L170.634 142.357L170.697 143.355ZM173.661 128.162L173.228 129.063L173.228 129.063L173.661 128.162ZM162.695 122.886L162.261 123.787L162.261 123.787L162.695 122.886ZM105.006 30.6261C105.834 35.3202 105.007 39.9188 102.946 43.8232L104.714 44.7569C106.976 40.4729 107.883 35.4249 106.976 30.2788L105.006 30.6261ZM81.262 13.9244C92.3989 11.9606 103.033 19.4338 105.006 30.6261L106.976 30.2788C104.812 18.0063 93.147 9.79789 80.9148 11.9548L81.262 13.9244ZM64.6622 37.7398C62.6887 26.5475 70.1252 15.8881 81.262 13.9244L80.9148 11.9548C68.6825 14.1116 60.5286 25.8146 62.6926 38.0871L64.6622 37.7398ZM70.9732 49.3093C67.7734 46.3574 65.4782 42.3673 64.6622 37.7398L62.6926 38.0871C63.5871 43.1601 66.1061 47.5403 69.617 50.7793L70.9732 49.3093ZM37.6344 115.708C32.8424 88.5305 47.0564 62.3958 70.7305 50.9445L69.8597 49.1441C45.4014 60.9746 30.7133 87.9736 35.6648 116.055L37.6344 115.708ZM42.5321 143.483L37.6344 115.708L35.6648 116.055L40.5624 143.831L42.5321 143.483ZM42.0701 144.98C42.456 144.585 42.628 144.028 42.5321 143.483L40.5624 143.831C40.5466 143.741 40.575 143.649 40.6389 143.583L42.0701 144.98ZM33.5695 153.689L42.0701 144.98L40.6389 143.583L32.1383 152.292L33.5695 153.689ZM40.5536 165.294C33.6395 167.327 28.5354 158.846 33.5695 153.689L32.1383 152.292C25.6659 158.922 32.2283 169.827 41.1178 167.213L40.5536 165.294ZM93.462 149.734L40.5536 165.294L41.1178 167.213L94.0263 151.653L93.462 149.734ZM115.595 145.832C108.095 146.305 100.671 147.614 93.462 149.734L94.0263 151.653C101.093 149.575 108.369 148.292 115.721 147.828L115.595 145.832ZM170.634 142.357L115.595 145.832L115.721 147.828L170.76 144.353L170.634 142.357ZM173.228 129.063C179.722 132.187 177.826 141.903 170.634 142.357L170.76 144.353C180.007 143.769 182.445 131.278 174.095 127.261L173.228 129.063ZM162.261 123.787L173.228 129.063L174.095 127.261L163.128 121.985L162.261 123.787ZM161.315 122.539C161.411 123.083 161.763 123.548 162.261 123.787L163.128 121.985C163.211 122.025 163.269 122.101 163.285 122.191L161.315 122.539ZM156.418 94.7628L161.315 122.539L163.285 122.191L158.387 94.4155L156.418 94.7628ZM103.719 45.2839C129.643 48.1666 151.659 67.7774 156.418 94.7628L158.387 94.4155C153.471 66.5322 130.723 46.2743 103.941 43.2962L103.719 45.2839ZM74.1241 36.0714C75.1702 42.0046 80.8109 45.9765 86.7297 44.9328L86.3824 42.9632C81.5589 43.8137 76.9494 40.5771 76.0937 35.7241L74.1241 36.0714ZM82.9387 23.433C77.0198 24.4767 73.0779 30.1382 74.1241 36.0714L76.0937 35.7241C75.238 30.8711 78.4625 26.2531 83.286 25.4026L82.9387 23.433ZM95.5443 32.2944C94.4981 26.3612 88.8575 22.3894 82.9387 23.433L83.286 25.4026C88.1094 24.5521 92.719 27.7887 93.5747 32.6417L95.5443 32.2944ZM86.7297 44.9328C92.6485 43.8892 96.5905 38.2277 95.5443 32.2944L93.5747 32.6417C94.4304 37.4948 91.2058 42.1127 86.3824 42.9632L86.7297 44.9328Z" fill="#101010" mask="url(#path-5-inside-2_2407_5212)"/>
<path d="M55.1685 115.343C53.1392 116.225 50.7629 115.271 50.1179 113.154C48.7714 108.735 48.1361 104.113 48.2477 99.4809C48.3916 93.503 49.7758 87.6509 52.3045 82.3296C54.8332 77.0084 58.446 72.3453 62.8927 68.6632C66.2574 65.877 70.0388 63.7028 74.0816 62.2191C76.2341 61.4292 78.4917 62.8197 79.0256 65.0495V65.0495C79.5548 67.2601 78.1848 69.4569 76.0719 70.295C73.112 71.4691 70.3388 73.1112 67.8504 75.1717C64.2931 78.1174 61.4029 81.8479 59.3799 86.1048C57.3569 90.3618 56.2496 95.0436 56.1344 99.8259C56.0503 103.318 56.4967 106.802 57.4498 110.151C58.0378 112.217 57.1381 114.486 55.1685 115.343V115.343Z" fill="white"/>
</svg>
