<svg width="177" height="189" viewBox="0 0 177 189" fill="none" xmlns="http://www.w3.org/2000/svg">
<rect x="71.5603" y="119.756" width="41.9663" height="60.118" rx="7.5" transform="rotate(-10 71.5603 119.756)" fill="#7440FF" stroke="#101010"/>
<mask id="path-2-inside-1_2407_5212" fill="white">
<path fill-rule="evenodd" clip-rule="evenodd" d="M96.7778 44.2898C98.9391 40.1956 99.8063 35.3723 98.9387 30.4522C96.87 18.7198 85.7207 10.879 74.0362 12.9393C62.3516 14.9996 54.5564 26.1808 56.6252 37.9132C57.4804 42.7635 59.8875 46.9486 63.2429 50.0441C39.1766 61.6849 24.7256 88.2518 29.5974 115.881L34.495 143.657C34.535 143.884 34.4633 144.116 34.3022 144.281L25.8016 152.99C20.0484 158.884 25.8817 168.577 33.7835 166.253L86.6919 150.693C93.8299 148.594 101.18 147.298 108.605 146.829L163.645 143.355C171.865 142.836 174.031 131.732 166.609 128.162L155.642 122.886C155.435 122.786 155.288 122.592 155.248 122.365L150.35 94.5889C145.513 67.1545 123.131 47.2202 96.7778 44.2898ZM79.5038 43.9478C74.1326 44.8949 69.0076 41.2906 68.0566 35.8975C67.1057 30.5044 70.6889 25.3646 76.0601 24.4176C81.4312 23.4705 86.5563 27.0747 87.5072 32.4678C88.4582 37.861 84.8749 43.0007 79.5038 43.9478Z"/>
</mask>
<path fill-rule="evenodd" clip-rule="evenodd" d="M96.7778 44.2898C98.9391 40.1956 99.8063 35.3723 98.9387 30.4522C96.87 18.7198 85.7207 10.879 74.0362 12.9393C62.3516 14.9996 54.5564 26.1808 56.6252 37.9132C57.4804 42.7635 59.8875 46.9486 63.2429 50.0441C39.1766 61.6849 24.7256 88.2518 29.5974 115.881L34.495 143.657C34.535 143.884 34.4633 144.116 34.3022 144.281L25.8016 152.99C20.0484 158.884 25.8817 168.577 33.7835 166.253L86.6919 150.693C93.8299 148.594 101.18 147.298 108.605 146.829L163.645 143.355C171.865 142.836 174.031 131.732 166.609 128.162L155.642 122.886C155.435 122.786 155.288 122.592 155.248 122.365L150.35 94.5889C145.513 67.1545 123.131 47.2202 96.7778 44.2898ZM79.5038 43.9478C74.1326 44.8949 69.0076 41.2906 68.0566 35.8975C67.1057 30.5044 70.6889 25.3646 76.0601 24.4176C81.4312 23.4705 86.5563 27.0747 87.5072 32.4678C88.4582 37.861 84.8749 43.0007 79.5038 43.9478Z" fill="#7440FF"/>
<path d="M96.7778 44.2898L95.8934 43.823L95.208 45.1214L96.6673 45.2837L96.7778 44.2898ZM63.2429 50.0441L63.6783 50.9443L65.0003 50.3049L63.9209 49.3091L63.2429 50.0441ZM34.3022 144.281L33.5866 143.583L33.5866 143.583L34.3022 144.281ZM25.8016 152.99L26.5172 153.688L26.5172 153.688L25.8016 152.99ZM33.7835 166.253L33.5013 165.294L33.5013 165.294L33.7835 166.253ZM86.6919 150.693L86.4098 149.734L86.6919 150.693ZM108.605 146.829L108.542 145.831L108.605 146.829ZM163.645 143.355L163.582 142.357L163.645 143.355ZM166.609 128.162L166.175 129.063L166.609 128.162ZM155.642 122.886L155.209 123.787L155.209 123.787L155.642 122.886ZM97.9539 30.6258C98.7816 35.32 97.9545 39.9185 95.8934 43.823L97.6621 44.7567C99.9236 40.4726 100.831 35.4247 99.9235 30.2785L97.9539 30.6258ZM74.2098 13.9241C85.3467 11.9604 95.9804 19.4335 97.9539 30.6258L99.9235 30.2785C97.7595 18.006 86.0947 9.79764 73.8625 11.9545L74.2098 13.9241ZM57.61 37.7395C55.6365 26.5473 63.0729 15.8879 74.2098 13.9241L73.8625 11.9545C61.6303 14.1114 53.4764 25.8144 55.6403 38.0868L57.61 37.7395ZM63.9209 49.3091C60.7212 46.3572 58.4259 42.3671 57.61 37.7395L55.6403 38.0868C56.5349 43.1598 59.0539 47.5401 62.5648 50.7791L63.9209 49.3091ZM30.5822 115.707C25.7901 88.5303 40.0041 62.3955 63.6783 50.9443L62.8074 49.1439C38.3491 60.9743 23.6611 87.9734 28.6126 116.055L30.5822 115.707ZM35.4798 143.483L30.5822 115.707L28.6126 116.055L33.5102 143.83L35.4798 143.483ZM35.0178 144.98C35.4038 144.584 35.5758 144.027 35.4798 143.483L33.5102 143.83C33.4943 143.74 33.5228 143.648 33.5866 143.583L35.0178 144.98ZM26.5172 153.688L35.0178 144.98L33.5866 143.583L25.086 152.291L26.5172 153.688ZM33.5013 165.294C26.5873 167.327 21.4831 158.845 26.5172 153.688L25.086 152.291C18.6136 158.922 25.1761 169.827 34.0656 167.212L33.5013 165.294ZM86.4098 149.734L33.5013 165.294L34.0656 167.212L86.9741 151.653L86.4098 149.734ZM108.542 145.831C101.043 146.305 93.6191 147.614 86.4098 149.734L86.9741 151.653C94.0407 149.575 101.317 148.292 108.668 147.827L108.542 145.831ZM163.582 142.357L108.542 145.831L108.668 147.827L163.708 144.353L163.582 142.357ZM166.175 129.063C172.67 132.187 170.774 141.903 163.582 142.357L163.708 144.353C172.955 143.769 175.392 131.278 167.042 127.261L166.175 129.063ZM155.209 123.787L166.175 129.063L167.042 127.261L156.076 121.985L155.209 123.787ZM154.263 122.538C154.359 123.083 154.711 123.547 155.209 123.787L156.076 121.985C156.158 122.024 156.217 122.101 156.233 122.191L154.263 122.538ZM149.365 94.7626L154.263 122.538L156.233 122.191L151.335 94.4153L149.365 94.7626ZM96.6673 45.2837C122.591 48.1664 144.607 67.7771 149.365 94.7626L151.335 94.4153C146.418 66.532 123.671 46.2741 96.8883 43.2959L96.6673 45.2837ZM67.0718 36.0712C68.118 42.0044 73.7586 45.9762 79.6774 44.9326L79.3301 42.963C74.5067 43.8135 69.8971 40.5769 69.0414 35.7239L67.0718 36.0712ZM75.8864 23.4328C69.9676 24.4764 66.0256 30.1379 67.0718 36.0712L69.0414 35.7239C68.1857 30.8708 71.4103 26.2529 76.2337 25.4024L75.8864 23.4328ZM88.4921 32.2942C87.4459 26.361 81.8053 22.3891 75.8864 23.4328L76.2337 25.4024C81.0572 24.5519 85.6667 27.7885 86.5224 32.6415L88.4921 32.2942ZM79.6774 44.9326C85.5963 43.8889 89.5382 38.2274 88.4921 32.2942L86.5224 32.6415C87.3782 37.4945 84.1536 42.1125 79.3301 42.963L79.6774 44.9326Z" fill="#101010" mask="url(#path-2-inside-1_2407_5212)"/>
<path d="M48.1162 115.343C46.0869 116.225 43.7106 115.271 43.0657 113.154C41.7191 108.735 41.0839 104.113 41.1954 99.4809C41.3393 93.503 42.7236 87.6509 45.2523 82.3296C47.781 77.0084 51.3938 72.3453 55.8404 68.6632C59.2052 65.877 62.9865 63.7028 67.0293 62.2191C69.1818 61.4292 71.4395 62.8197 71.9733 65.0495C72.5025 67.2601 71.1325 69.4569 69.0197 70.295C66.0597 71.4691 63.2865 73.1112 60.7982 75.1717C57.2408 78.1174 54.3506 81.8479 52.3277 86.1048C50.3047 90.3618 49.1973 95.0436 49.0822 99.8259C48.9981 103.318 49.4445 106.802 50.3976 110.151C50.9855 112.217 50.0858 114.486 48.1162 115.343Z" fill="white"/>
</svg>
