<svg width="404" height="404" viewBox="0 0 404 404" fill="none" xmlns="http://www.w3.org/2000/svg">
<path d="M265.52 126.25C254.078 55.7867 227.092 6.3125 195.688 6.3125C164.283 6.3125 137.297 55.7867 125.855 126.25H265.52ZM119.938 202C119.938 219.517 120.884 236.324 122.541 252.5H268.755C270.412 236.324 271.359 219.517 271.359 202C271.359 184.483 270.412 167.676 268.755 151.5H122.541C120.884 167.676 119.938 184.483 119.938 202ZM376.146 126.25C353.579 72.6727 307.892 31.2469 251.474 14.5187C270.727 41.1891 283.984 81.3523 290.927 126.25H376.146ZM139.822 14.5187C83.4828 31.2469 37.7172 72.6727 15.2289 126.25H100.448C107.313 81.3523 120.569 41.1891 139.822 14.5187V14.5187ZM384.589 151.5H294.084C295.741 168.07 296.688 185.035 296.688 202C296.688 218.965 295.741 235.93 294.084 252.5H384.51C388.85 236.324 391.296 219.517 391.296 202C391.296 184.483 388.85 167.676 384.589 151.5ZM94.6875 202C94.6875 185.035 95.6344 168.07 97.2914 151.5H6.78594C2.525 167.676 0 184.483 0 202C0 219.517 2.525 236.324 6.78594 252.5H97.2125C95.6344 235.93 94.6875 218.965 94.6875 202V202ZM125.855 277.75C137.297 348.213 164.283 397.688 195.688 397.688C227.092 397.688 254.078 348.213 265.52 277.75H125.855ZM251.553 389.481C307.892 372.753 353.658 331.327 376.225 277.75H291.006C284.062 322.648 270.806 362.811 251.553 389.481ZM15.2289 277.75C37.7961 331.327 83.4828 372.753 139.901 389.481C120.648 362.811 107.391 322.648 100.448 277.75H15.2289V277.75Z" fill="#7440FF"/>
</svg>
