<svg width="504" height="504" viewBox="0 0 504 504" fill="none" xmlns="http://www.w3.org/2000/svg">
<g clip-path="url(#clip0_445_4568)">
<path d="M378.047 126H126.01C105.236 125.997 84.7843 131.131 66.4748 140.944C48.1653 150.757 32.5663 164.945 21.0666 182.245C9.56691 199.545 2.52328 219.42 0.562831 240.101C-1.39762 260.782 1.78593 281.626 9.83007 300.779C17.8742 319.932 30.5293 336.798 46.6687 349.877C62.8081 362.956 81.931 371.841 102.335 375.741C122.739 379.642 143.791 378.436 163.616 372.233C183.442 366.029 201.426 355.02 215.967 340.185H288.034C302.574 355.018 320.555 366.027 340.378 372.231C360.201 378.435 381.25 379.642 401.652 375.744C422.055 371.846 441.176 362.964 457.316 349.89C473.456 336.815 486.113 319.953 494.16 300.804C502.208 281.655 505.396 260.814 503.441 240.135C501.487 219.456 494.45 199.581 482.957 182.279C471.464 164.978 455.872 150.786 437.569 140.967C419.265 131.148 398.818 126.006 378.047 126V126ZM195.305 261.44C195.305 263.946 194.309 266.35 192.537 268.122C190.765 269.894 188.361 270.89 185.855 270.89H144.908V311.837C144.908 314.343 143.913 316.746 142.141 318.518C140.368 320.291 137.965 321.286 135.459 321.286H116.56C114.054 321.286 111.651 320.291 109.879 318.518C108.106 316.746 107.111 314.343 107.111 311.837V270.89H66.1638C63.6577 270.89 61.2542 269.894 59.4821 268.122C57.71 266.35 56.7145 263.946 56.7145 261.44V242.542C56.7145 240.036 57.71 237.632 59.4821 235.86C61.2542 234.088 63.6577 233.092 66.1638 233.092H107.111V192.145C107.111 189.639 108.106 187.236 109.879 185.464C111.651 183.692 114.054 182.696 116.56 182.696H135.459C137.965 182.696 140.368 183.692 142.141 185.464C143.913 187.236 144.908 189.639 144.908 192.145V233.092H185.855C188.361 233.092 190.765 234.088 192.537 235.86C194.309 237.632 195.305 240.036 195.305 242.542V261.44ZM365.392 321.286C359.163 321.286 353.073 319.439 347.893 315.978C342.713 312.517 338.676 307.597 336.292 301.842C333.908 296.087 333.285 289.753 334.5 283.643C335.715 277.533 338.715 271.921 343.12 267.516C347.525 263.111 353.138 260.111 359.247 258.896C365.357 257.68 371.691 258.304 377.446 260.688C383.202 263.072 388.121 267.109 391.582 272.289C395.043 277.469 396.89 283.559 396.89 289.788C396.89 298.142 393.572 306.154 387.665 312.061C381.758 317.968 373.746 321.286 365.392 321.286V321.286ZM415.789 245.691C409.559 245.691 403.469 243.844 398.29 240.383C393.11 236.922 389.073 232.003 386.689 226.247C384.305 220.492 383.681 214.159 384.896 208.049C386.112 201.939 389.111 196.326 393.517 191.921C397.922 187.516 403.534 184.517 409.644 183.301C415.754 182.086 422.087 182.71 427.842 185.094C433.598 187.478 438.517 191.515 441.978 196.694C445.439 201.874 447.287 207.964 447.287 214.194C447.287 222.547 443.968 230.559 438.061 236.466C432.154 242.373 424.143 245.691 415.789 245.691Z" fill="#7440FF"/>
</g>
<defs>
<clipPath id="clip0_445_4568">
<rect width="504" height="504" fill="white"/>
</clipPath>
</defs>
</svg>
